<?xml version="1.0" standalone="no"?>
<!DOCTYPE svg PUBLIC "-//W3C//DTD SVG 20010904//EN"
 "http://www.w3.org/TR/2001/REC-SVG-20010904/DTD/svg10.dtd">
<svg version="1.0" xmlns="http://www.w3.org/2000/svg"
 width="280.000000pt" height="280.000000pt" viewBox="0 0 280.000000 280.000000"
 preserveAspectRatio="xMidYMid meet">

<g transform="translate(0.000000,280.000000) scale(0.100000,-0.100000)"
fill="#000000" stroke="none">
<path d="M1265 2754 c-138 -19 -190 -30 -279 -59 -212 -68 -388 -177 -546
-335 -197 -196 -332 -453 -381 -721 -17 -93 -17 -390 0 -479 51 -274 182 -522
381 -721 194 -195 419 -316 692 -375 103 -23 406 -26 512 -6 492 93 895 446
1049 917 42 128 58 220 64 370 15 393 -121 741 -396 1015 -199 198 -448 330
-716 380 -63 11 -328 22 -380 14z m595 -704 l0 -90 -460 0 -460 0 0 90 0 90
460 0 460 0 0 -90z m-1020 -790 l0 -600 -90 0 -90 0 0 600 0 600 90 0 90 0 0
-600z m1300 0 l0 -600 -90 0 -90 0 0 600 0 600 90 0 90 0 0 -600z"/>
</g>
</svg>
